# xmcd
#
# Track frame offsets: 
#        150
#        10774
#        26381
#        36913
#        48916
#        69068
#        85600
#        97796
#        117471
#        131324
#        145139
#
# Disc length: 2111 seconds
#
# Revision: 0
# Processed by: cddbd v1.5.2PL0 Copyright (c) Steve Scherf et al.
# Submitted via: ExactAudioCopy v1.0b3
#
DISCID=79083d0b
DTITLE=Dale Kelly - 11 Favorites
DYEAR=1900
DGENRE=Country
TTITLE0=Blues For Dixie
TTITLE1=Ever Changing Women
TTITLE2=Sweet Thing
TTITLE3=Elizabeth Ann
TTITLE4=Angel Flying Too Close To The Ground
TTITLE5=Shaky Ground
TTITLE6=Cowboy Man
TTITLE7=Georgia
TTITLE8=Farmer's Daughter
TTITLE9=Tennessee Stud
TTITLE10=My Girl
EXTD=
EXTT0=
EXTT1=
EXTT2=
EXTT3=
EXTT4=
EXTT5=
EXTT6=
EXTT7=
EXTT8=
EXTT9=
EXTT10=
PLAYORDER=
